<svg xmlns="http://www.w3.org/2000/svg" viewBox="0 0 48 48" width="48" height="48">
  <defs>
    <linearGradient id="toolsGradient" x1="0%" y1="0%" x2="100%" y2="100%">
      <stop offset="0%" stop-color="#22d3ee"/>
      <stop offset="100%" stop-color="#06b6d4"/>
    </linearGradient>
  </defs>

  <!-- Wrench -->
  <g fill="url(#toolsGradient)">
    <path d="M12,8 C8,8 5,11 5,15 C5,17 5.5,18.5 6.5,19.5 L18,31 L22,27 L10.5,15.5 C10.5,15.3 10.5,15.2 10.5,15 C10.5,13 12,11.5 14,11.5 L14,8 C13.3,8 12.6,8 12,8 Z"/>
    <rect x="18" y="27" width="6" height="14" rx="1" transform="rotate(-45, 21, 34)"/>
  </g>

  <!-- Screwdriver -->
  <g fill="#0891b2">
    <rect x="30" y="6" width="6" height="12" rx="1"/>
    <polygon points="33,18 30,22 30,32 33,36 36,32 36,22"/>
    <rect x="31" y="36" width="4" height="6" rx="0.5"/>
  </g>

  <!-- Handle detail -->
  <g fill="#06b6d4" opacity="0.5">
    <rect x="31" y="8" width="4" height="2" rx="0.5"/>
    <rect x="31" y="12" width="4" height="2" rx="0.5"/>
  </g>

  <!-- Sparkle effects -->
  <g fill="#ffffff" opacity="0.5">
    <circle cx="8" cy="12" r="1"/>
    <circle cx="35" cy="4" r="0.8"/>
  </g>
</svg>
